<svg xmlns="http://www.w3.org/2000/svg" xmlns:xlink="http://www.w3.org/1999/xlink" viewBox="0 0 64.93572 64.04967"><defs><style>.cls-1{fill:url(#linear-gradient);}.cls-2{fill:#fff;}.cls-3{fill:#ffffe4;}.cls-3,.cls-4{stroke:#000;stroke-miterlimit:10;stroke-width:0.25px;}.cls-4{fill:none;}.cls-5{font-size:2px;font-family:Helvetica;}.cls-6{fill:#1e7719;}</style><linearGradient id="linear-gradient" x1="23.79846" y1="16.87729" x2="73.54285" y2="103.79285" gradientUnits="userSpaceOnUse"><stop offset="0" stop-color="#fe315d"/><stop offset="0.09846" stop-color="#2b7593"/><stop offset="0.34611" stop-color="#336667"/><stop offset="0.55975" stop-color="#4b872e"/></linearGradient></defs><g id="Layer_1" data-name="Layer 1"><rect class="cls-1" width="64.93572" height="64.04967"/></g><g id="Layer_2" data-name="Layer 2"><rect class="cls-2" x="1.46996" y="1.32913" width="62.13664" height="61.13979"/><rect class="cls-3" x="3.48191" y="4.83654" width="17.3886" height="11.66677"/><rect class="cls-3" x="26.51325" y="4.83654" width="15.0899" height="11.66677"/><rect class="cls-3" x="9.87617" y="43.15967" width="21.42528" height="16.17103"/><rect class="cls-3" x="37.54344" y="43.15967" width="24.32791" height="16.17103"/><line class="cls-4" x1="20.58881" y1="10.66993" x2="26.51325" y2="10.66993"/><polyline class="cls-4" points="20.589 43.16 20.589 29.204 34.058 29.056 34.058 16.503"/><polyline class="cls-4" points="34.058 29.056 50.952 29.056 50.721 43.16"/><line class="cls-4" x1="3.48191" y1="6.90407" x2="20.87051" y2="6.70682"/><line class="cls-4" x1="26.51325" y1="7.05175" x2="41.60315" y2="6.90407"/><line class="cls-4" x1="9.87617" y1="45.44562" x2="31.30145" y2="45.44562"/><line class="cls-4" x1="37.54344" y1="45.59466" x2="61.87135" y2="45.59466"/><text class="cls-5" transform="translate(27.11137 6.54492)">Animal</text><text class="cls-5" transform="translate(4.02917 6.54492)">Farm</text><text class="cls-5" transform="translate(10.44162 45.05774)">Cow</text><text class="cls-5" transform="translate(38.35001 45.20648)">Chicken</text><text class="cls-5" transform="translate(4.0292 9.12783)">DisplayInventory()</text><text class="cls-5" transform="translate(27.11124 9.12783)">DisplayAnimal()</text><text class="cls-5" transform="translate(10.44149 47.79283)">DisplayAnimal()</text><text class="cls-5" transform="translate(38.35018 47.942)">DisplayAnimal()</text><text class="cls-5" transform="translate(10.44163 50.22989)">GetCowInformation()</text><text class="cls-5" transform="translate(38.35001 50.37893)">GetChickenInformation()</text><line class="cls-4" x1="34.0582" y1="16.50331" x2="35.08577" y2="18.44162"/><line class="cls-4" x1="33.02278" y1="18.497" x2="34.0582" y2="16.50331"/></g><g id="Layer_3" data-name="Layer 3"><path class="cls-6" d="M16.88258,37.293A3.365,3.365,0,0,0,16.594,35.8483a1.64718,1.64718,0,0,0-1.581-.96884c-1.39431,0-2.074,1.258-2.074,3.80784,0,2.46508.66249,3.553,2.125,3.553,1.12173,0,1.76763-.69746,2.02244-2.14214l2.567.15289a4.52939,4.52939,0,0,1-.84974,2.36316,4.43465,4.43465,0,0,1-3.75688,1.78481c-3.07721,0-5.06587-2.295-5.06587-5.84805a6.35256,6.35256,0,0,1,1.32617-4.14739,4.55386,4.55386,0,0,1,3.79066-1.68289,4.16719,4.16719,0,0,1,3.58681,1.61475,5.32065,5.32065,0,0,1,.96885,2.77085Z" transform="translate(-7.47722 -7.95033)"/><path class="cls-6" d="M27.05935,36.13748a1.78835,1.78835,0,0,0-1.97207-1.34335c-.986,0-1.54719.3745-1.54719,1.00321,0,.66309.40828.95167,1.63193,1.18988a8.14254,8.14254,0,0,1,2.97528.96885,3.17254,3.17254,0,0,1,1.46187,2.68611,3.67878,3.67878,0,0,1-1.6663,3.02565,5.60181,5.60181,0,0,1-2.99188.73123,5.19258,5.19258,0,0,1-3.24668-.96885,3.63983,3.63983,0,0,1-1.35994-2.17591l2.4479-.56116a2.0801,2.0801,0,0,0,2.295,1.581c1.12173,0,1.81859-.45924,1.81859-1.18987,0-.68027-.45864-.986-1.97147-1.2918a7.60576,7.60576,0,0,1-2.618-.88411,2.89326,2.89326,0,0,1-1.37713-2.58419,3.36884,3.36884,0,0,1,1.15611-2.618,4.1992,4.1992,0,0,1,2.97469-.98544,4.7871,4.7871,0,0,1,2.97469.86693,3.50032,3.50032,0,0,1,1.258,1.802Z" transform="translate(-7.47722 -7.95033)"/><path class="cls-6" d="M34.057,35.04952v2.3288h4.24989v2.12495H34.057v2.48167h5.4054V44.229H31.35428V32.8902h8.10811v2.15932Z" transform="translate(-7.47722 -7.95033)"/><path class="cls-6" d="M44.405,37.37832a1.74257,1.74257,0,0,0,1.37713-.44206,1.27528,1.27528,0,0,0,.35673-.88411,1.41193,1.41193,0,0,0-1.53-1.37654c-.93508,0-1.42809.42487-1.73386,1.44468l-2.346-.37391a3.4924,3.4924,0,0,1,1.03758-1.853,4.33848,4.33848,0,0,1,3.14417-1.17269c2.39753,0,4.02946,1.24084,4.02946,3.04284a2.5372,2.5372,0,0,1-1.9377,2.53263,2.95564,2.95564,0,0,1,1.42691.69686,2.59364,2.59364,0,0,1,.85093,1.98926c0,2.074-1.71727,3.41674-4.38619,3.41674a4.37891,4.37891,0,0,1-3.26387-1.13891,3.67911,3.67911,0,0,1-1.24143-2.3122l2.41472-.33955a1.92268,1.92268,0,0,0,2.03962,1.75045,1.55151,1.55151,0,0,0,1.73385-1.52942,1.48117,1.48117,0,0,0-.57835-1.20706,2.832,2.832,0,0,0-1.56319-.2554h-1.037V37.37832Z" transform="translate(-7.47722 -7.95033)"/><path class="cls-6" d="M54.37793,37.37832a1.74256,1.74256,0,0,0,1.37712-.44206,1.27523,1.27523,0,0,0,.35673-.88411,1.41193,1.41193,0,0,0-1.53-1.37654c-.93507,0-1.42809.42487-1.73386,1.44468l-2.34538-.37391a3.49169,3.49169,0,0,1,1.037-1.853,4.33848,4.33848,0,0,1,3.14417-1.17269c2.39753,0,4.02946,1.24084,4.02946,3.04284a2.53721,2.53721,0,0,1-1.93769,2.53263,2.95564,2.95564,0,0,1,1.4269.69686,2.59364,2.59364,0,0,1,.85093,1.98926c0,2.074-1.71726,3.41674-4.38619,3.41674a4.37892,4.37892,0,0,1-3.26387-1.13891A3.6757,3.6757,0,0,1,50.1624,40.948l2.41412-.33955a1.922,1.922,0,0,0,2.03962,1.75045A1.55151,1.55151,0,0,0,56.35,40.82943a1.48448,1.48448,0,0,0-.57834-1.20706,2.83211,2.83211,0,0,0-1.5632-.2554h-1.037V37.37832Z" transform="translate(-7.47722 -7.95033)"/><path class="cls-6" d="M63.43355,35.21959,63.26289,37.735a3.06071,3.06071,0,0,1,2.41412-.96885,3.53249,3.53249,0,0,1,3.67156,3.62119c0,2.46449-1.71727,4.01168-4.41938,4.01168a4.67893,4.67893,0,0,1-3.19631-1.05418,3.69516,3.69516,0,0,1-1.25743-2.15872l2.48168-.37391a1.771,1.771,0,0,0,1.90333,1.49564A1.72012,1.72012,0,0,0,66.67964,40.574a1.78442,1.78442,0,0,0-1.78482-1.78482,1.83809,1.83809,0,0,0-1.63193.88411L61.087,39.316,61.529,32.8902H68.6683l-.288,2.32939Z" transform="translate(-7.47722 -7.95033)"/></g></svg>